<svg id="feather" xmlns="http://www.w3.org/2000/svg" xmlns:xlink="http://www.w3.org/1999/xlink" width="512" height="512" viewBox="0 0 512 512">
  <defs>
    <linearGradient id="linear-gradient" x1="0.5" x2="0.5" y2="1" gradientUnits="objectBoundingBox">
      <stop offset="0" stop-color="#696ef6"/>
      <stop offset="1" stop-color="#020202"/>
    </linearGradient>
  </defs>
  <rect id="Rectangle_1" data-name="Rectangle 1" width="512" height="512" rx="150" fill="none"/>
  <g id="_2027659" data-name="2027659" transform="translate(140.919 1331.226)">
    <path id="Path_1" data-name="Path 1" d="M227.115-1278.661a40.358,40.358,0,0,1-4.962,2.916,31.44,31.44,0,0,0-5.965,3.771c-1.584,1.25-2.93,2.258-3.009,2.258-.369,0,.607-1.052,2.375-2.609a18.067,18.067,0,0,1,4.249-2.784c1.24-.592,2.586-1.294,2.982-1.557l.686-.482-.713-.022c-1.214,0-9.237,2.456-13.566,4.188-3.088,1.206-3.959,2.083-7.284,7.17a5.918,5.918,0,0,1-1.161,1.513,16.25,16.25,0,0,1,1.293-2.916c1.9-3.706,1.927-3.815,1.293-3.815a5.762,5.762,0,0,0-1.795.811c-.713.46-2.771,1.644-4.592,2.631-6.1,3.333-5.991,3.223-7.627,6.775-.818,1.754-2.3,3.749-2.587,3.508a4.879,4.879,0,0,1,.924-1.6c1.61-2.214,2.3-4.012,1.557-4.012-.686,0-8.894,4.846-10.267,6.051-.9.811-1.61,2.324-2.3,4.977-.977,3.705-2.032,6.139-3.51,7.981-.765.921-1.4,1.579-1.478,1.425-.053-.131.211-.614.581-1.074a22.9,22.9,0,0,0,3.035-7.082,30.206,30.206,0,0,1,1.214-3.925c.37-.9.66-1.666.66-1.71,0-.285-.792.175-3.062,1.82s-5.173,3.157-6.07,3.157a2.5,2.5,0,0,0-.924.57,9.96,9.96,0,0,1-2.006,1.228,7.883,7.883,0,0,0-3.537,3.069,31.63,31.63,0,0,0-2.085,7.63,50.123,50.123,0,0,1-4.117,10.524c-.607.987-1.663,2.215-1.689,1.952,0-.066.475-.965,1.029-1.973a41.178,41.178,0,0,0,4.117-11.84c.686-4.6.871-4.539-3.589-.965-2.138,1.688-4.988,3.947-6.361,5.043-2.111,1.666-2.639,2.236-3.484,3.705-1.056,1.864-1.372,2.061-.977.592.185-.745.158-.9-.106-.855a66.005,66.005,0,0,0-8,6.6c-.66.811-.713,1.118-.845,3.6-.132,2.609-.158,2.7-.633,2.412s-.475-.438-.185-2.675a14.9,14.9,0,0,0,.185-2.456c-.238-.2-1.24.417-1.821,1.118-.317.417-3.035,2.96-6.044,5.657s-5.806,5.284-6.255,5.745a30.365,30.365,0,0,0-3.853,5.9c-.686,1.447-.686,1.513-.29,2.368a4.3,4.3,0,0,1,.422,1.14,5.309,5.309,0,0,1-1.874.987,4.714,4.714,0,0,0-2.4,1.491,3.218,3.218,0,0,1-1.029.965c-.264.131-.422.373-.343.526.106.219-.264.417-1.214.68-2.56.7-5.754,3.4-9.237,7.827-2.428,3.047-2.534,4.254-.765,8.88.633,1.6.739,2.127.5,2.477-.158.241-.4.395-.528.329a10.708,10.708,0,0,1-1.082-2.039,8.49,8.49,0,0,1-.924-4.21,5.511,5.511,0,0,0-.29-2.28c-.264.022-4.408,5.152-7.126,8.814-1.979,2.675-3.22,5.087-3.246,6.249,0,.438-.422.943-1.716,2a9.515,9.515,0,0,0-2.8,3.333c-.581,1.074-1.372,2.521-1.768,3.245a4.447,4.447,0,0,1-1.847,1.929c-4.038,2.324-8.551,7.279-9.317,10.239a11.406,11.406,0,0,1-1.557,2.96c-.686.987-1.742,2.477-2.349,3.311-1.425,2.039-1.927,4.122-1.821,7.652.079,2.5.053,2.609-.528,2.916-.528.307-.581.307-.581-.109a8.881,8.881,0,0,1,.29-1.557,7.873,7.873,0,0,0,.185-2.039l-.079-.943-.871,1.184a17.564,17.564,0,0,0-1.4,2.258c-.29.592-1.082,2.061-1.795,3.223-2.059,3.4-2.3,4.254-1.9,6.424a29.255,29.255,0,0,0,1.108,3.793,10.509,10.509,0,0,1,.633,2.039,5.826,5.826,0,0,1-1.135-1.228,6.961,6.961,0,0,1-1.346-2.719c-.581-2.434-.633-2.455-1.663-.724A19.847,19.847,0,0,0,52.845-1119a5.7,5.7,0,0,0,.422,1.754c.528,1.294.317,1.535-.449.482a3.135,3.135,0,0,0-.66-.789c-.29,0-.9,1.4-.9,2.126a9.551,9.551,0,0,1-1.082,2.916c-2.138,4.122-2.138,4.692.053,8.266a11.391,11.391,0,0,1,1.188,2.215c-.264.2-.765-.285-1.9-1.973-1.689-2.412-2.349-3.026-3.3-3.026-.739,0-1.082.482-.528.767a4.616,4.616,0,0,1,.845,1.381c.5,1.052.633,1.842.765,5.2.158,3.64.238,4.122,1.029,6.051a25.774,25.774,0,0,0,4.328,7.74c1.979,2.477,2.455,3.2,2.059,3.2a2.215,2.215,0,0,1-.713-.46,10.333,10.333,0,0,0-1.821-1.184,20.134,20.134,0,0,1-2.56-1.754c-1.056-.9-1.267-1.009-1.425-.68-.343.745.739,2.1,2.692,3.442,2.243,1.535,3.273,2.478,3.273,3.07a2.234,2.234,0,0,0,.264.877c.4.592.185.526-1.847-.57a5.513,5.513,0,0,1-2.481-2.017c-.5-.833-.686-.965-.818-.658a3.138,3.138,0,0,0-.026,1.359c.185.965.686,1.447,2.666,2.609a3.1,3.1,0,0,1,1.082,1.14c.317.658.29.9-.422,2.916-.449,1.228-.977,2.609-1.214,3.091l-.422.877H46.669c-7.5.022-12.563.943-13.487,2.434-.713,1.118-.4,1.82,1.082,2.456.686.285.792.439.686.987-.158.877.343,1.557,1.425,1.929a1.49,1.49,0,0,1,1.056.877c.29.987-.106,7.564-.554,9.3-1.372,5.152-3.563,8.288-8.762,12.541a59.894,59.894,0,0,1-9.976,6.709c-7.575,4.363-10.795,6.884-14.173,11.116a32.669,32.669,0,0,0-2.349,3.355c-2.56,4.407-1.874,10.086,1.716,14.493a13.4,13.4,0,0,0,6.334,4.319l1.874.614,9.369.066c5.147.044,21.774,0,36.95-.088,31.7-.219,28.53.044,31.777-2.478a13.671,13.671,0,0,0,5.358-11.949,12.475,12.475,0,0,0-2.323-6.665c-2.481-3.859-5.569-6.249-18.185-14.164-6.625-4.166-11.507-8.639-13.619-12.5-1.557-2.828-2.481-7.542-2.481-12.782v-3l1-.438c.924-.417.977-.5.9-1.381-.026-.526.053-.921.211-.921a1.932,1.932,0,0,0,1.32-1.293c0-.746-1.24-1.688-2.9-2.215-.871-.263-1.584-.5-1.584-.526,0-.153,2.481-6.6,2.956-7.7.713-1.667.9-1.864,1.821-1.864.765,0,1.293.329,4.223,2.521a7.21,7.21,0,0,0,5.067,1.644c1.584,0,2.718-.307,2.93-.811.132-.241.026-.285-.4-.175a12.764,12.764,0,0,1-2.059.175,7.893,7.893,0,0,1-4.935-1.82,12.318,12.318,0,0,0-1.927-1.206c-.475-.2-.792-.482-.739-.614.185-.482,1.029-.417,2.4.131a15.485,15.485,0,0,0,3.325.811,17.944,17.944,0,0,0,5.622-.175c2.586-.329,3.827-.57,4.2-.855a39.539,39.539,0,0,0,3.748-4.276c.5-.658.5-.68.026-.965a1.954,1.954,0,0,0-.845-.307c-.528,0-.422-.329.369-1.118a5.2,5.2,0,0,1,4.012-1.294c3.246,0,6.545-.965,7.865-2.3a10.422,10.422,0,0,0,1.636-2.675,27.62,27.62,0,0,1,2.956-5.043c.528-.68.528-.724.053-.724a12.587,12.587,0,0,0-2.824,1.469c-3.378,2.149-3.484,2.214-3.194,1.82A28.413,28.413,0,0,1,99.3-1099.9a12.192,12.192,0,0,0,4.988-4.6,23.129,23.129,0,0,1,1.5-2.521,21.538,21.538,0,0,0,1.663-3.442c.977-2.631,2.138-4.867,2.771-5.306.369-.263.713-.263,2.085-.044a4.511,4.511,0,0,0,3.4-.417c1.927-.746,3.22-1.8,6.018-4.8a19.344,19.344,0,0,1,4.3-3.837c.4-.219.713-.482.713-.592,0-.263-2.138.46-4.3,1.447a7.792,7.792,0,0,1-2.059.724,13.505,13.505,0,0,1,3.088-1.6c2.639-1.206,3.563-1.754,4.355-2.565a10.508,10.508,0,0,0,1.082-1.294c.079-.2.845-.022,2.481.5,4.223,1.425,5.463,1.557,8.208.855a6.425,6.425,0,0,0,3.985-2.3c.977-1.118.792-1.272-.686-.482-2.243,1.228-6.07,1.316-9,.219a4.865,4.865,0,0,1-1.61-.767,9.462,9.462,0,0,1,2.455-.044c5.015.241,8.736-.789,11.956-3.289l1.636-1.25h4.038c9.528-.022,14.7-.921,19.187-3.376a13.891,13.891,0,0,0,4.909-4.012,13.319,13.319,0,0,1,2.4-2.346,34.435,34.435,0,0,0,6.994-7.257c2.243-3.683,2.481-8.792.554-11.905a10.393,10.393,0,0,0-3.827-3.223,10.968,10.968,0,0,0-5.542-.68c-1.61.263-1.161.724.845.877a9.162,9.162,0,0,1,7.627,4.495c1.452,2.543.95,6.534-1.24,10.261a13.676,13.676,0,0,1-3.563,4.166,12.4,12.4,0,0,1-2.349,1.8,12.721,12.721,0,0,1-.528-2.346,9.188,9.188,0,0,0-3.114-5.854c-2.3-2.1-5.648-3.048-7.627-2.171l-.9.395,2.111.175c4.592.395,6.783,2.258,7.39,6.314a8.773,8.773,0,0,1-1.082,4.845c-.713,1.14-5.991,2.938-10.531,3.574a96.129,96.129,0,0,1-11.27.789h-2.586l-.158-.614c-.29-1.14-.4-1.359-.66-1.359a.219.219,0,0,1-.238-.2,3.21,3.21,0,0,1,1.372-.592,7.163,7.163,0,0,0,2.745-1.513c1.188-.965,1.4-1.272,1.557-2.258a3.494,3.494,0,0,1,.977-1.951,7.812,7.812,0,0,0,2.138-3.969c.079-1.666-1.188-3-1.557-1.644-.739,2.719-1.346,3.705-3.246,5.174a10.741,10.741,0,0,1-8.842,1.381l-1.029-.351.66-.614c.818-.7,2.692-3.859,2.534-4.253-.079-.175-.686-.285-1.689-.285-2.428-.022-3.246-.439-8.63-4.319-.845-.614-1.478-1.14-1.4-1.206a21.126,21.126,0,0,1,2.982,1.206c6.044,2.741,9.66,3.771,13.17,3.771a7.136,7.136,0,0,0,3.431-.548,9.254,9.254,0,0,0,3.959-3.442c.818-1.337.818-2.17-.026-2.96l-.633-.614-.026,1.009a5.447,5.447,0,0,1-1.874,4.166,2.672,2.672,0,0,1-2.3.855,9.47,9.47,0,0,1-5.727-2.456c-.66-.614-1.188-1.271-1.135-1.447s.554-.46,1.135-.636a5.471,5.471,0,0,0,1.742-.855c.818-.658,4.46-6.621,4.46-7.323,0-.438-.026-.438-.977.088-2.877,1.557-6.255,1.118-10.267-1.337-.95-.57-1.61-1.074-1.478-1.118a22.442,22.442,0,0,1,2.718.636c3.484.965,7.205,1.118,8.947.373a5.315,5.315,0,0,0,1.927-1.447c.581-.724.9-.921,1.478-.921a11.243,11.243,0,0,0,2.718-.745,6.028,6.028,0,0,0,2.824-1.71,2.134,2.134,0,0,0,.765-2.193c-.132-1.447-.238-1.6-.924-1.315-.317.153-.607.68-.818,1.513a2.921,2.921,0,0,1-3.3,2.565,6.669,6.669,0,0,1-4.355-1.688l-.871-.745,1.927-.11a10.571,10.571,0,0,0,2.8-.482,9.591,9.591,0,0,0,3.484-3.815c.581-.987.924-1.359,1.188-1.272.211.066,1.425.285,2.692.482a31.378,31.378,0,0,0,10.5-.351c3.431-.9,6.334-2.434,7.839-4.166a28.075,28.075,0,0,0,3.642-5.525c0-.724-.475-.395-1.927,1.316a11.509,11.509,0,0,1-4.883,3.749,18.983,18.983,0,0,1-10.4,1.25,33.729,33.729,0,0,1-7.337-1.776l-.66-.307.818-.022a4.493,4.493,0,0,0,1.848-.592c.977-.548,1.188-.57,4.856-.636,6.572-.088,12.4-1.491,13.909-3.355.581-.7.845-2.214.4-2.214a1.052,1.052,0,0,0-.845,1.009c0,.811-1.452,1.8-3.352,2.28a26.778,26.778,0,0,1-9.4.066c-3.22-.417-3.062-.2-1.768-2.587l.739-1.359,1.478-.154a16.1,16.1,0,0,0,8-2.872c1.214-.987,1.4-1.469.4-1.009-.4.175-.554.175-.66-.044-.053-.153-.633.153-1.478.789-1.795,1.338-3.378,1.732-6.519,1.644l-2.349-.066,1.32-.5a10.3,10.3,0,0,0,2.428-1.4l1.082-.9,3.933-.285c5.437-.395,7.443-.965,10.32-2.894,1.636-1.118,1.821-1.491,1.056-2.171a12.1,12.1,0,0,0-1.768-1.228l-1.161-.658,2.085-.57a22.3,22.3,0,0,0,3.009-1.008,6.666,6.666,0,0,0,3.431-5.547c0-.789-.079-.943-.449-.877-.343.044-.528.373-.633,1.074A5.813,5.813,0,0,1,187.5-1209a9.7,9.7,0,0,1-7.364-2.017c-1.425-1.1-3.827-3.64-3.642-3.881a2.342,2.342,0,0,1,1.24.044,5.221,5.221,0,0,0,3.273-.066,18.007,18.007,0,0,0,2.982-2.785c2.586-2.828,3.4-3.9,3.114-4.122a8.378,8.378,0,0,0-2.323.745,7.61,7.61,0,0,1-4.2.921c-2.375,0-3.378-.241-6.888-1.645-2.771-1.1-2.718-1.118,2.27-.417a21.442,21.442,0,0,0,5.938.132c5.147-.417,6.572-1.052,8.208-3.64a22.535,22.535,0,0,1,1.716-2.346c1.4-1.6,1.188-1.776-1-.877-1.847.767-1.953.789-5.067.789-2.692,0-3.431-.088-4.645-.5a14.883,14.883,0,0,1-1.847-.7c-.739-.373,0-.5,1.24-.2,1.953.46,8.34.417,9.792-.088a7.758,7.758,0,0,1,1.847-.373,5.439,5.439,0,0,0,1.768-.482,23.766,23.766,0,0,1,2.586-.855,7.822,7.822,0,0,0,4.381-2.675c1.293-1.447,1.768-2.543,1.267-2.938-.29-.263-.528-.11-1.4.855a5.672,5.672,0,0,1-4.592,2.149,22.318,22.318,0,0,1-9.924-2.806c-4.408-2.258-7.733-3.311-10.663-3.355-1.214,0-1.346-.044-.818-.219,1.425-.482,5.279.329,12.114,2.521a22.94,22.94,0,0,0,7.1,1.447,7.23,7.23,0,0,0,5.78-2.258,16.53,16.53,0,0,0,2.243-2.39,5.184,5.184,0,0,1,1.979-1.6,7,7,0,0,0,3.431-3.114c.607-1.315.317-1.666-.475-.592a7.971,7.971,0,0,1-5.384,2.938c-.95.175-1.293.175-1.452-.044-.158-.2-.343-.175-.739.132-.449.351-.818.395-2.217.285a14.407,14.407,0,0,1-2.428-.373l-.792-.263,1.267-.417a10.027,10.027,0,0,0,4.17-2.412,7.479,7.479,0,0,1,2.111-1.381c.343-.044,1.531-.2,2.613-.329a15.765,15.765,0,0,0,3.352-.811,9.371,9.371,0,0,0,4.276-3.881,2.471,2.471,0,0,1,1.663-1.447,29.782,29.782,0,0,0,6.941-5.723c.528-.833.607-.833-2.111.022-1.346.417-2.111.5-5.147.5a34.48,34.48,0,0,1-5.411-.307l-1.847-.307,5.806-.263c6.387-.285,7.759-.526,9.818-1.688,1.188-.68,2.982-2.368,2.982-2.784,0-.11-.422-.088-.95.022a4.87,4.87,0,0,1-1.5.153c-.5-.066-.422-.153.5-.548,1.531-.68,2.745-1.579,2.745-2.017,0-.658-.29-.68-1.161-.132-1.5.965-2.956,1.272-6.1,1.294-2.639.022-4.117-.153-3.774-.438.079-.044,1.478-.2,3.114-.307,5.358-.395,8.129-1.206,9.976-2.96,1.056-1.009,2.27-2.741,2.032-2.916a5.352,5.352,0,0,0-1.689.592c-1.425.636-1.742.68-4.064.68a8.922,8.922,0,0,1-2.692-.219c-.106-.132.422-.219,1.4-.219,2.56,0,4.46-.417,5.384-1.184,1.109-.921,1.5-1.82,1.821-4.034a23.923,23.923,0,0,1,.4-2.39C230.124-1280.437,229.042-1280.086,227.115-1278.661Zm-60.1,30.016a39.791,39.791,0,0,0-1.346,4.363c-1.293,4.78-1.61,5.021-.765.57.5-2.7,1-4.166,1.716-5.152C167.283-1249.763,167.521-1249.654,167.019-1248.645Zm10.9,1.228c-.475.811-.9,1.359-.977,1.206a4.374,4.374,0,0,1,.792-1.688C178.87-1249.741,179.028-1249.347,177.919-1247.417Zm18.9-.373c.554.153-.211.2-2.692.153-2.56-.022-3.563-.131-3.827-.351-.29-.241.132-.263,2.692-.153A33.651,33.651,0,0,1,196.817-1247.79Zm-7.522,1.315a17.177,17.177,0,0,0,3.827.438c1.927.022,2.059.044,1.61.329-.739.46-3.062.417-4.988-.132C186.444-1246.76,186.075-1247.286,189.295-1246.474Zm-26.683,4.385c-.686,3.442-1.689,6.753-1.979,6.512a2.971,2.971,0,0,1,.158-1.162c.158-.592.581-2.587.924-4.429.581-2.982,1.267-5.109,1.557-4.845A35.071,35.071,0,0,1,162.612-1242.089ZM151-1235.073c-.422.965-1.188,2.96-1.715,4.451a17.553,17.553,0,0,1-1.188,2.894c-.317.241-.211-.263.607-2.741a30,30,0,0,1,2.243-5.854C151.738-1237.332,151.764-1236.806,151-1235.073Zm-3.563,2.719c-.238.745-.792,2.171-1.161,3.2-.4,1.031-.924,2.587-1.188,3.442-.528,1.666-1.082,2.215-.792.767.9-4.3,3.22-10.371,3.537-9.121A5.009,5.009,0,0,1,147.436-1232.355Zm14.833,12.629a39.857,39.857,0,0,1,7.971,2.894,4.606,4.606,0,0,1,1.372,1.074c0,.241,0,.241-2.032-.833a42.234,42.234,0,0,0-9.792-3.026c-1.267-.175-2.4-.329-2.507-.329-.132,0-.132-.109-.026-.241C157.491-1220.537,160.342-1220.274,162.269-1219.726Zm-26.709,1.447a2.081,2.081,0,0,1-.29,2.061l-.449.526-.158-.636C134.292-1217.818,135.031-1219.419,135.559-1218.279Zm-.106,4.122c0,1.337-3.088,8.244-3.695,8.244-.158,0-.106-.307.158-.833a27.555,27.555,0,0,0,2.217-5.766c.4-1.754.713-2.456,1.056-2.28C135.348-1214.727,135.454-1214.442,135.454-1214.157Zm31.935,6.073c1.663.461,3.721,1.009,4.592,1.228,2.534.658,1.847,1.228-.871.724a33.283,33.283,0,0,1-7.416-2.3c-3.748-1.579-4.355-2.039-1.584-1.184C163.351-1209.246,165.726-1208.544,167.389-1208.083Zm-16.548,3.464a38.675,38.675,0,0,1,4.249,1.425,84.335,84.335,0,0,0,11.059,3.026c1.874.285,2.138.592.765.921a6.1,6.1,0,0,1-2.56-.175c-1.689-.351-7.839-2.39-12.009-3.968a9.846,9.846,0,0,0-3.959-.811,67.7,67.7,0,0,0-8.578.614c-.475.109-.475.088-.132-.2a6.121,6.121,0,0,1,3.141-.811,10.4,10.4,0,0,0,2.4-.439C147.2-1205.606,147.489-1205.606,150.841-1204.619Zm-17.551-.373a4.955,4.955,0,0,1-1.953.548c-2.323.329-2.666.351-2.323.066C129.806-1205.036,133.5-1205.562,133.289-1204.992Zm41.067.066c-.818.526-2.164.373-1.5-.175a2.606,2.606,0,0,1,1.108-.153C174.831-1205.255,174.858-1205.233,174.356-1204.926Zm10.847,1.907c.37.307-2.771.614-6.018.614-3.325,0-5.886-.307-5.252-.636C174.277-1203.216,184.993-1203.194,185.2-1203.019Zm-37.794,3.771c2.375.5,5.463,1.491,5.463,1.732,0,.175-1.927-.044-5.674-.614-5.674-.855-7.707-1.052-10.451-.943a8.261,8.261,0,0,1-2.455-.066C135.031-1200.168,142.949-1200.234,147.409-1199.248Zm-29.006,3.333c0,3.574-.554,7.082-1.161,7.63-.317.263-.29-6.534.026-8.858.317-2.258.449-2.675.845-2.565C118.351-1199.642,118.43-1198.568,118.4-1195.915Zm-11.19,2.214c0,.592-.026,1.25-.026,1.491-.053,2.258.053,5.7.29,8.88a20.936,20.936,0,0,1,.053,4.714c-.211.7-.29.767-.343.329a5.319,5.319,0,0,0-.238-1.315c-.026-.066-.079-1.338-.132-2.85a44.771,44.771,0,0,0-.369-4.714,18.708,18.708,0,0,1,0-6.468C106.791-1195.016,107.24-1195.06,107.213-1193.7Zm43.416,7.411c2.481,1.008,5.727,2.236,7.232,2.763l2.745.943-.713.5c-1.029.745-2.745.68-4.883-.154a60.8,60.8,0,0,1-8.208-4.363c-1.082-.7-2.375-1.447-2.824-1.666-.475-.241-.871-.5-.871-.592C143.107-1189.162,146.011-1188.154,150.629-1186.29Zm-18.185-1.557a16.375,16.375,0,0,1,7.126,3.749c2.323,1.929,6.757,6.95,5.7,6.49a24,24,0,0,1-4.8-4.517,17.168,17.168,0,0,0-2.56-2.5,17.559,17.559,0,0,0-9.369-2.872c-1.584,0-2.323-.351-1.082-.5A16.9,16.9,0,0,1,132.445-1187.847Zm-5.173,6.775c1.742.592,5.78,2.741,5.806,3.069,0,.109-.4-.022-.845-.285a28.546,28.546,0,0,0-10.135-3.091c-.845,0-.924-.044-.5-.219C122.521-1181.949,125.451-1181.685,127.272-1181.072Zm-25.1,4.692a13.023,13.023,0,0,1,.264,2.785c-.026,1.469-.053,1.513-.29.68-.132-.482-.475-1.535-.792-2.324-.4-1.162-.449-1.557-.238-1.929C101.592-1177.893,101.829-1177.717,102.172-1176.38Zm19.293,7.5a18.053,18.053,0,0,1,3.088.789l.739.351-.792-.11c-6.07-.9-10.874-1.009-13.3-.263-2.217.68-2.111.351.238-.745,1.452-.68,1.452-.68,4.566-.57A52.89,52.89,0,0,1,121.465-1168.881Zm-32.2,2.7c1.346,3.662,3.114,10.984,2.745,11.335-.211.2-.4-.2-1.4-3.07a41.653,41.653,0,0,1-2.138-7.718c-.317-2.083-.317-2.127-.026-2.127A4.067,4.067,0,0,1,89.266-1166.184Zm24.809,1.162a12.9,12.9,0,0,1-1.9.57c-1.056.263-2.613.658-3.431.877-1.716.482-1.795.482-1.795.241,0-.439,4.619-1.776,6.149-1.8A2.219,2.219,0,0,1,114.076-1165.022Zm-34.97,5.174a16.727,16.727,0,0,1-.66,1.623c-.185.395-.211.416-.4.044a2.742,2.742,0,0,1,.686-2.455c.317-.307.607-.526.686-.482A3.506,3.506,0,0,1,79.105-1159.848ZM71.029-1146.8a5.611,5.611,0,0,0,.924,1.82c.343.241.264.417-.422,1.228-.449.526-.924.921-1.029.855-.581-.285-1-4.451-.581-5.788.158-.482.185-.5.369-.11C70.4-1148.557,70.739-1147.658,71.029-1146.8Zm49.909-.68c1.663.2,4.038.482,5.279.636a32,32,0,0,0,8.974.263c1.5-.263,1.795-.263,2.243,0,3.774,2.258,6.308,3.245,8.947,3.508,1.5.153,1.742.351,1.742,1.6,0,.526-.026.526-1.9.373-4.381-.329-8.287-1.162-20.8-4.363-3.985-1.031-7.68-1.93-8.182-2.017a6.357,6.357,0,0,1-1.32-.351C115.5-1148.052,115.949-1148.03,120.938-1147.482Zm33.149.044a5.882,5.882,0,0,1-2.8,2.083c-2.243.965-8.076.57-9.264-.614-.29-.285-.158-.307,1.108-.153A19.121,19.121,0,0,0,153-1147.46C154.351-1148.184,154.562-1148.162,154.087-1147.438Zm-81.342,4.144c.238.066.422.219.422.329,0,.307-.686.219-1.056-.132C71.768-1143.448,72.032-1143.536,72.745-1143.294Zm1.478,5.13a70.185,70.185,0,0,1,2.9,8.639c0,.132-.158.088-.369-.088-.317-.307-1.056-2.214-3.352-8.858-.686-1.93-.977-3.464-.66-3.179C72.824-1141.584,73.484-1140.027,74.223-1138.164Zm44.6-1.863c2.111.417,5.912,1.162,8.446,1.666,2.534.482,4.724.965,4.83,1.053.554.438-4.751,1.557-7.364,1.557-1.372,0-1.768-.132-4.988-1.644-3.616-1.71-7.232-2.96-8.551-2.96a11.122,11.122,0,0,0-2.692.767c-2.586,1.031-3.3,1.118-5.569.636a23.189,23.189,0,0,0-8.525,0,31.059,31.059,0,0,0-3.378,1.14c-2.059.855-2.243.877-1.742.395a16.5,16.5,0,0,1,4.988-1.973,26.426,26.426,0,0,1,9.29,0l2.032.417,2.455-1.009,2.455-1.03,2.243.109A55.659,55.659,0,0,1,118.826-1140.027Zm49.486-.417a17.358,17.358,0,0,1-4.883,1.666c-2.9.636-14.648.877-13.909.263.132-.109,4.276-.526,10.742-1.074,2.27-.2,4.988-.526,6.07-.745C168.814-1140.861,168.946-1140.861,168.312-1140.444Zm-29.032,4.144c5.437.833,5.358.789,2.745,1.864a13.789,13.789,0,0,1-6.572,1.228c-3.141-.241-3.035-.132-1.768-2.127.765-1.184,1.24-1.688,1.5-1.622C135.4-1136.914,137.248-1136.607,139.281-1136.3Zm-75.272,5.438c.211,1.929.739,3.42,2.8,7.674a12.165,12.165,0,0,1,1.267,3.157,13.861,13.861,0,0,1-1.821-2.478,24.289,24.289,0,0,1-3.3-7.542c-.132-1.052.317-2.719.686-2.521A3.9,3.9,0,0,1,64.009-1130.863Zm32.173-1.491a33.529,33.529,0,0,1,4.2.9c10.082,2.982,10.214,3,15.334,3.026a37.592,37.592,0,0,1,4.17.154c0,.307-.95.417-3.774.417-3.457,0-4.883-.241-10.9-1.732-7.812-1.951-12.378-2.543-15.492-2a6.316,6.316,0,0,1-1.716.132c-.317-.285.528-.658,2.111-.921A16.614,16.614,0,0,1,96.181-1132.354Zm1.135,8.88c2.191.351,5.78.811,8,1.031a18.093,18.093,0,0,1,4.012.592c0,.263-5.094,0-7.654-.395-9.739-1.557-15.44-1.535-19.187.044-1.32.57-1.584.592-1.108.132a14.813,14.813,0,0,1,4.592-1.732C88.343-1124.351,92.856-1124.219,97.316-1123.474Zm-21.985,6.928c-2.27,4.714-4.038,8.2-5.463,10.831-.66,1.272-1.663,3.245-2.164,4.385-.528,1.14-1.927,4.144-3.141,6.687-2.455,5.24-4.672,10.458-5.991,14.142-2.824,7.849-3.484,9.559-3.695,9.8a.7.7,0,0,1-1.135-.044c-.158-.329,1.293-4.407,3.194-8.88.66-1.513,1.478-3.574,1.874-4.6.739-1.973,2.745-6.4,4.223-9.318.475-.965,1.716-3.486,2.718-5.591s2.455-4.977,3.194-6.358c1.636-3.026,3.88-7.411,5.3-10.414,1.663-3.486,2.481-4.846,2.56-4.341A17.418,17.418,0,0,1,75.331-1116.546Zm28.4.417c.079.066-.475.11-1.24.11a21.532,21.532,0,0,0-3.141.307c-2.586.46-18.264.658-18.264.241,0-.5.554-.636,3.035-.767C87-1116.392,103.518-1116.3,103.73-1116.129Zm-45.343,2.587a2.473,2.473,0,0,0,1.531,1.315,6.427,6.427,0,0,1,3.484,3.749c.185.57.185.614-.079.263-1.953-2.565-2.428-3.026-3.616-3.53a2.692,2.692,0,0,1-1.689-1.425C57.279-1114.726,57.6-1115.055,58.387-1113.542Zm48.51,2.171a7.819,7.819,0,0,1-2.191,1.008,7.779,7.779,0,0,1-3.167.636c-.818-.066-.924-.11-.528-.241.29-.088,1.478-.482,2.639-.877C105.92-1111.634,107.055-1111.81,106.9-1111.371Zm-52.865,2.96,2.006,2.324-.977.833c-.713.614-1.082.789-1.32.614-.607-.417-1.478-2.478-1.716-4.012a16.717,16.717,0,0,0-.4-1.952C51.34-1111.393,52-1110.779,54.032-1108.411Zm3.669,5.35a12.917,12.917,0,0,1,1.24,3.026c.29,1.513.317,3.968.026,3.968a17.708,17.708,0,0,1-2.006-3.069c-1.557-2.609-1.795-3.179-1.663-3.859.158-.833.818-1.842,1.214-1.842A7.172,7.172,0,0,1,57.7-1103.062Zm25.68,4.341c.238.088.132.351-.343.855-1.135,1.184-2.8,1.447-8.155,1.272-2.455-.088-4.513-.2-4.592-.241-.211-.2.9-1.031,1.9-1.469a12.788,12.788,0,0,1,2.111-.614A67.09,67.09,0,0,1,83.381-1098.72Zm4.935.154c.924.109,1.161.219.95.417-.449.46-4.487,1.8-4.487,1.491a2.662,2.662,0,0,1,.475-.68,5.011,5.011,0,0,0,.66-.987C86.1-1098.742,86.442-1098.764,88.316-1098.567ZM76.73-1087.648c5.49.439,3.246.68-3.273.373-5.358-.263-7.812-.153-8.762.307-.132.088-.238-.022-.238-.2C64.457-1088.2,67.888-1088.328,76.73-1087.648Zm-3.325,3.64c.264.131-.924.2-3.484.219a18.982,18.982,0,0,0-5.49.438,5.447,5.447,0,0,1-1.768.329c-.317-.263.95-1.009,2.059-1.206A45.95,45.95,0,0,1,73.4-1084.009Z" fill="url(#linear-gradient)"/>
  </g>
</svg>
